<svg width="986" height="284" viewBox="0 0 986 284" fill="none" xmlns="http://www.w3.org/2000/svg">
    <path fill-rule="evenodd" clip-rule="evenodd"
        d="M94.6664 157.777C59.812 157.777 31.5554 129.523 31.5554 94.6663C31.5554 59.81 59.812 31.5554 94.6664 31.5554C129.523 31.5554 157.777 59.81 157.777 94.6663C157.777 129.523 129.523 157.777 94.6664 157.777ZM94.6664 0C146.949 0 189.333 42.3837 189.333 94.6663C189.333 146.949 146.949 189.333 94.6664 189.333C42.3838 189.333 0 146.949 0 94.6663C0 42.3837 42.3838 0 94.6664 0ZM184.712 193.953C190.874 200.115 190.874 210.104 184.712 216.266L121.599 279.379C115.437 285.54 105.449 285.54 99.2868 279.379C93.1249 273.217 93.1249 263.228 99.2868 257.066L162.4 193.953C168.562 187.791 178.55 187.791 184.712 193.953ZM220.888 15.7777C220.888 24.4928 213.825 31.5554 205.112 31.5554C196.397 31.5554 189.335 24.4928 189.335 15.7777C189.335 7.06268 196.397 0 205.112 0C213.825 0 220.888 7.06268 220.888 15.7777Z"
        fill="#4f37b9" />
    <path
        d="M260.948 105.176V89.2727H344.505V105.176H312.135V194H293.317V105.176H260.948ZM378.306 147.977V194H359.795V89.2727H377.897V128.801H378.817C380.658 124.369 383.505 120.875 387.357 118.318C391.243 115.727 396.187 114.432 402.187 114.432C407.641 114.432 412.397 115.574 416.454 117.858C420.51 120.142 423.647 123.483 425.863 127.881C428.113 132.278 429.238 137.648 429.238 143.989V194H410.726V146.852C410.726 141.568 409.363 137.46 406.635 134.528C403.942 131.562 400.158 130.08 395.283 130.08C392.01 130.08 389.079 130.795 386.488 132.227C383.931 133.625 381.92 135.653 380.454 138.312C379.022 140.972 378.306 144.193 378.306 147.977ZM482.88 195.534C475.005 195.534 468.204 193.898 462.476 190.625C456.783 187.318 452.403 182.648 449.334 176.614C446.266 170.545 444.732 163.403 444.732 155.188C444.732 147.108 446.266 140.017 449.334 133.915C452.437 127.778 456.766 123.006 462.323 119.597C467.88 116.153 474.408 114.432 481.908 114.432C486.749 114.432 491.317 115.216 495.613 116.784C499.942 118.318 503.76 120.705 507.067 123.943C510.408 127.182 513.033 131.307 514.942 136.318C516.851 141.295 517.806 147.227 517.806 154.114V159.79H453.425V147.312H500.062C500.028 143.767 499.26 140.614 497.76 137.852C496.26 135.057 494.164 132.858 491.471 131.256C488.812 129.653 485.709 128.852 482.164 128.852C478.38 128.852 475.056 129.773 472.192 131.614C469.329 133.42 467.096 135.807 465.493 138.773C463.925 141.705 463.124 144.926 463.09 148.438V159.33C463.09 163.898 463.925 167.818 465.596 171.091C467.266 174.33 469.601 176.818 472.601 178.557C475.601 180.261 479.113 181.114 483.135 181.114C485.829 181.114 488.266 180.739 490.448 179.989C492.63 179.205 494.522 178.062 496.124 176.562C497.726 175.062 498.937 173.205 499.755 170.989L517.039 172.932C515.948 177.5 513.868 181.489 510.8 184.898C507.766 188.273 503.88 190.898 499.141 192.773C494.403 194.614 488.982 195.534 482.88 195.534ZM640.162 122.716C639.31 119.955 638.134 117.483 636.634 115.301C635.168 113.085 633.395 111.193 631.316 109.625C629.27 108.057 626.918 106.881 624.259 106.097C621.6 105.278 618.702 104.869 615.566 104.869C609.941 104.869 604.93 106.284 600.532 109.114C596.134 111.943 592.674 116.102 590.151 121.591C587.662 127.045 586.418 133.693 586.418 141.534C586.418 149.443 587.662 156.142 590.151 161.631C592.64 167.119 596.1 171.295 600.532 174.159C604.964 176.989 610.111 178.403 615.975 178.403C621.293 178.403 625.895 177.381 629.782 175.335C633.702 173.29 636.719 170.392 638.833 166.642C640.947 162.858 642.003 158.426 642.003 153.347L646.299 154.011H617.867V139.182H660.361V151.761C660.361 160.727 658.452 168.483 654.634 175.028C650.816 181.574 645.566 186.619 638.884 190.165C632.202 193.676 624.532 195.432 615.873 195.432C606.225 195.432 597.753 193.267 590.458 188.938C583.197 184.574 577.52 178.386 573.43 170.375C569.373 162.33 567.344 152.784 567.344 141.739C567.344 133.284 568.537 125.733 570.924 119.085C573.344 112.438 576.719 106.795 581.049 102.159C585.378 97.4886 590.458 93.9432 596.287 91.5227C602.117 89.0682 608.458 87.8409 615.31 87.8409C621.106 87.8409 626.509 88.6932 631.52 90.3977C636.532 92.0682 640.981 94.4545 644.867 97.5568C648.787 100.659 652.009 104.341 654.532 108.602C657.055 112.864 658.708 117.568 659.492 122.716H640.162ZM677.888 194V115.455H695.837V128.545H696.655C698.087 124.011 700.542 120.517 704.019 118.062C707.53 115.574 711.536 114.33 716.036 114.33C717.059 114.33 718.201 114.381 719.462 114.483C720.758 114.551 721.831 114.67 722.684 114.841V131.869C721.9 131.597 720.655 131.358 718.951 131.153C717.28 130.915 715.661 130.795 714.093 130.795C710.718 130.795 707.684 131.528 704.991 132.994C702.331 134.426 700.235 136.42 698.701 138.977C697.167 141.534 696.4 144.483 696.4 147.824V194H677.888ZM756.178 195.585C751.201 195.585 746.718 194.699 742.729 192.926C738.775 191.119 735.638 188.46 733.32 184.949C731.036 181.437 729.894 177.108 729.894 171.96C729.894 167.528 730.712 163.864 732.349 160.966C733.985 158.068 736.218 155.75 739.047 154.011C741.877 152.273 745.064 150.96 748.61 150.074C752.189 149.153 755.888 148.489 759.707 148.08C764.309 147.602 768.042 147.176 770.905 146.801C773.769 146.392 775.849 145.778 777.144 144.96C778.474 144.108 779.138 142.795 779.138 141.023V140.716C779.138 136.864 777.996 133.881 775.712 131.767C773.428 129.653 770.138 128.597 765.843 128.597C761.309 128.597 757.712 129.585 755.053 131.562C752.428 133.54 750.655 135.875 749.735 138.568L732.451 136.114C733.814 131.341 736.064 127.352 739.201 124.148C742.337 120.909 746.172 118.489 750.706 116.886C755.241 115.25 760.252 114.432 765.741 114.432C769.525 114.432 773.292 114.875 777.042 115.761C780.792 116.648 784.218 118.114 787.32 120.159C790.422 122.17 792.911 124.915 794.786 128.392C796.695 131.869 797.65 136.216 797.65 141.432V194H779.854V183.21H779.241C778.116 185.392 776.53 187.437 774.485 189.347C772.474 191.222 769.934 192.739 766.866 193.898C763.831 195.023 760.269 195.585 756.178 195.585ZM760.985 181.983C764.701 181.983 767.922 181.25 770.65 179.784C773.377 178.284 775.474 176.307 776.939 173.852C778.439 171.398 779.189 168.722 779.189 165.824V156.568C778.61 157.045 777.621 157.489 776.224 157.898C774.86 158.307 773.326 158.665 771.621 158.972C769.917 159.278 768.229 159.551 766.559 159.79C764.888 160.028 763.439 160.233 762.212 160.403C759.451 160.778 756.979 161.392 754.797 162.244C752.616 163.097 750.894 164.29 749.633 165.824C748.371 167.324 747.741 169.267 747.741 171.653C747.741 175.062 748.985 177.636 751.474 179.375C753.962 181.114 757.133 181.983 760.985 181.983ZM816.263 223.455V115.455H834.468V128.443H835.542C836.496 126.534 837.843 124.506 839.582 122.358C841.32 120.176 843.672 118.318 846.638 116.784C849.604 115.216 853.388 114.432 857.991 114.432C864.059 114.432 869.53 115.983 874.405 119.085C879.314 122.153 883.201 126.705 886.064 132.739C888.962 138.739 890.411 146.102 890.411 154.83C890.411 163.455 888.996 170.784 886.167 176.818C883.337 182.852 879.485 187.455 874.61 190.625C869.735 193.795 864.212 195.381 858.042 195.381C853.542 195.381 849.809 194.631 846.843 193.131C843.877 191.631 841.491 189.824 839.684 187.71C837.911 185.562 836.53 183.534 835.542 181.625H834.775V223.455H816.263ZM834.417 154.727C834.417 159.807 835.133 164.256 836.564 168.074C838.03 171.892 840.127 174.875 842.854 177.023C845.616 179.136 848.956 180.193 852.877 180.193C856.968 180.193 860.394 179.102 863.155 176.92C865.917 174.705 867.996 171.687 869.394 167.869C870.826 164.017 871.542 159.636 871.542 154.727C871.542 149.852 870.843 145.523 869.445 141.739C868.047 137.955 865.968 134.989 863.207 132.841C860.445 130.693 857.002 129.619 852.877 129.619C848.922 129.619 845.564 130.659 842.803 132.739C840.042 134.818 837.945 137.733 836.513 141.483C835.116 145.233 834.417 149.648 834.417 154.727ZM924.775 147.977V194H906.263V89.2727H924.366V128.801H925.286C927.127 124.369 929.974 120.875 933.826 118.318C937.712 115.727 942.655 114.432 948.655 114.432C954.11 114.432 958.866 115.574 962.922 117.858C966.979 120.142 970.116 123.483 972.332 127.881C974.582 132.278 975.707 137.648 975.707 143.989V194H957.195V146.852C957.195 141.568 955.832 137.46 953.104 134.528C950.411 131.562 946.627 130.08 941.752 130.08C938.479 130.08 935.547 130.795 932.957 132.227C930.4 133.625 928.388 135.653 926.922 138.312C925.491 140.972 924.775 144.193 924.775 147.977Z"
        fill="black" />
</svg>